[2026-03-02T18:43:03.750Z] Pipeline process started.
[2026-03-02T18:43:03.768Z] Downloading YouTube: https://youtube.com/shorts/90-7ISyQWuA?si=ZZBFt96hrYzzCYQp
[2026-03-02T18:43:11.013Z] YouTube download completed.
[2026-03-02T18:43:11.022Z] Extracting audio with FFmpeg...
[2026-03-02T18:43:12.072Z] Audio extraction successful.
[2026-03-02T18:43:12.076Z] Starting transcription...
[2026-03-02T18:43:13.217Z] Starting translation...
[2026-03-02T18:43:14.636Z] Generating segment 1/7: "İran rejiminin sınırları dışın..."
[2026-03-02T18:43:20.711Z] Segment 0 saved (54432 bytes).
[2026-03-02T18:43:20.717Z] Generating segment 2/7: "Ve bir anlaşma yaptığımızı düş..."
[2026-03-02T18:43:23.479Z] Segment 1 saved (30384 bytes).
[2026-03-02T18:43:23.483Z] Generating segment 3/7: "Ve geri geldiler ve bir anlaşm..."
[2026-03-02T18:43:26.738Z] Segment 2 saved (46080 bytes).
[2026-03-02T18:43:26.741Z] Generating segment 4/7: "bu insanlarla anlaşma yapamazs..."
[2026-03-02T18:43:30.780Z] Segment 3 saved (45792 bytes).
[2026-03-02T18:43:30.784Z] Generating segment 5/7: "çünkü tamamen negociye etme ye..."
[2026-03-02T18:43:34.683Z] Segment 4 saved (41328 bytes).
[2026-03-02T18:43:34.687Z] Generating segment 6/7: "Maalesef negociasyon konusunda..."
[2026-03-02T18:43:39.085Z] Segment 5 saved (38880 bytes).
[2026-03-02T18:43:39.089Z] Generating segment 7/7: "Beyaz Saray'da gerçek bir soru..."
[2026-03-02T18:43:41.794Z] Segment 6 saved (22464 bytes).
[2026-03-02T18:43:41.801Z] Running FFmpeg: C:\Users\fullm\Downloads\dubverse-saas\node_modules\ffmpeg-static\ffmpeg.exe -i C:\Users\fullm\Downloads\dubverse-saas\tmp\uploads\50ece4d4-7743-475c-b4e7-9cc90be49d37\audio.mp3 -i C:\Users\fullm\Downloads\dubverse-saas\tmp\uploads\50ece4d4-7743-475c-b4e7-9cc90be49d37\segments\seg_0.mp3 -i C:\Users\fullm\Downloads\dubverse-saas\tmp\uploads\50ece4d4-7743-475c-b4e7-9cc90be49d37\segments\seg_1.mp3 -i C:\Users\fullm\Downloads\dubverse-saas\tmp\uploads\50ece4d4-7743-475c-b4e7-9cc90be49d37\segments\seg_2.mp3 -i C:\Users\fullm\Downloads\dubverse-saas\tmp\uploads\50ece4d4-7743-475c-b4e7-9cc90be49d37\segments\seg_3.mp3 -i C:\Users\fullm\Downloads\dubverse-saas\tmp\uploads\50ece4d4-7743-475c-b4e7-9cc90be49d37\segments\seg_4.mp3 -i C:\Users\fullm\Downloads\dubverse-saas\tmp\uploads\50ece4d4-7743-475c-b4e7-9cc90be49d37\segments\seg_5.mp3 -i C:\Users\fullm\Downloads\dubverse-saas\tmp\uploads\50ece4d4-7743-475c-b4e7-9cc90be49d37\segments\seg_6.mp3 -filter_complex [1:a]aformat=sample_rates=44100:channel_layouts=stereo,adelay=0|0[s0];[2:a]aformat=sample_rates=44100:channel_layouts=stereo,adelay=6200|6200[s1];[3:a]aformat=sample_rates=44100:channel_layouts=stereo,adelay=11980|11980[s2];[4:a]aformat=sample_rates=44100:channel_layouts=stereo,adelay=15260|15260[s3];[5:a]aformat=sample_rates=44100:channel_layouts=stereo,adelay=19760|19760[s4];[6:a]aformat=sample_rates=44100:channel_layouts=stereo,adelay=25520|25520[s5];[7:a]aformat=sample_rates=44100:channel_layouts=stereo,adelay=31040|31040[s6];[0:a]aformat=sample_rates=44100:channel_layouts=stereo,volume=0[bg];[bg][s0][s1][s2][s3][s4][s5][s6]amix=inputs=8:duration=first:dropout_transition=999,volume=16[out] -map [out] -acodec libmp3lame -ar 44100 -b:a 192k -y C:\Users\fullm\Downloads\dubverse-saas\tmp\uploads\50ece4d4-7743-475c-b4e7-9cc90be49d37\dubbed_audio.mp3
[2026-03-02T18:43:42.265Z] FFmpeg Err: Input #0, mp3, from 'C:\Users\fullm\Downloads\dubverse-saas\tmp\uploads\50ece4d4-7743-475c-b4e7-9cc90be49d37\audio.mp3':
  Metadata:
    major_brand     : mp42
    minor_version   : 0
    compatible_brands: isommp42
    encoder         : Lavf60.16.100
  Duration: 00:00:33.33, start: 0.025057, bitrate: 128 kb/s
  Stream #0:0: Audio: mp3, 44100 Hz, stereo, fltp, 128 kb/s
    Metadata:
      encoder         : Lavc60.31
[mp3 @ 0000022302b46a00] Estimating duration from bitrate, this may be inaccurate
Input #1, mp3, from 'C:\Users\fullm\Downloads\dubverse-saas\tmp\uploads\50ece4d4-7743-475c-b4e7-9cc90be49d37\segments\seg_0.mp3':
  Duration: 00:00:09.07, start: 0.000000, bitrate: 48 kb/s
  Stream #1:0: Audio: mp3, 24000 Hz, mono, fltp, 48 kb/s
[mp3 @ 0000022302b4b4c0] Estimating duration from bitrate, this may be inaccurate
Input #2, mp3, from 'C:\Users\fullm\Downloads\dubverse-saas\tmp\uploads\50ece4d4-7743-475c-b4e7-9cc90be49d37\segments\seg_1.mp3':
  Duration: 00:00:05.06, start: 0.000000, bitrate: 48 kb/s
  Stream #2:0: Audio: mp3, 24000 Hz, mono, fltp, 48 kb/s
[mp3 @ 0000022302b95b80] Estimating duration from bitrate, this may be inaccurate
Input #3, mp3, from 'C:\Users\fullm\Downloads\dubverse-saas\tmp\uploads\50ece4d4-7743-475c-b4e7-9cc90be49d37\segments\seg_2.mp3':
  Duration: 00:00:07.68, start: 0.000000, bitrate: 48 kb/s
  Stream #3:0: Audio: mp3, 24000 Hz, mono, fltp, 48 kb/s
[mp3 @ 0000022302bca000] Estimating duration from bitrate, this may be inaccurate
Input #4, mp3, from 'C:\Users\fullm\Downloads\dubverse-saas\tmp\uploads\50ece4d4-7743-475c-b4e7-9cc90be49d37\segments\seg_3.mp3':
  Duration: 00:00:07.63, start: 0.000000, bitrate: 48 kb/s
  Stream #4:0: Audio: mp3, 24000 Hz, mono, fltp, 48 kb/s
[mp3 @ 0000022302be9180] Estimating duration from bitrate, this may be inaccurate
Input #5, mp3, from 'C:\Users\fullm\Downloads\dubverse-saas\tmp\uploads\50ece4d4-7743-475c-b4e7-9cc90be49d37\segments\seg_4.mp3':
  Duration: 00:00:06.89, start: 0.000000, bitrate: 48 kb/s
  Stream #5:0: Audio: mp3, 24000 Hz, mono, fltp, 48 kb/s
[mp3 @ 0000022302bf4d00] Estimating duration from bitrate, this may be inaccurate
Input #6, mp3, from 'C:\Users\fullm\Downloads\dubverse-saas\tmp\uploads\50ece4d4-7743-475c-b4e7-9cc90be49d37\segments\seg_5.mp3':
  Duration: 00:00:06.48, start: 0.000000, bitrate: 48 kb/s
  Stream #6:0: Audio: mp3, 24000 Hz, mono, fltp, 48 kb/s
[mp3 @ 0000022302c0e500] Estimating duration from bitrate, this may be inaccurate
Input #7, mp3, from 'C:\Users\fullm\Downloads\dubverse-saas\tmp\uploads\50ece4d4-7743-475c-b4e7-9cc90be49d37\segments\seg_6.mp3':
  Duration: 00:00:03.74, start: 0.000000, bitrate: 48 kb/s
  Stream #7:0: Audio: mp3, 24000 Hz, mono, fltp, 48 kb/s
Stream mapping:
  Stream #0:0 (mp3float) -> aformat:default
  Stream #1:0 (mp3float) -> aformat:default
  Stream #2:0 (mp3float) -> aformat:default
  Stream #3:0 (mp3float) -> aformat:default
  Stream #4:0 (mp3float) -> aformat:default
  Stream #5:0 (mp3float) -> aformat:default
  Stream #6:0 (mp3float) -> aformat:default
  Stream #7:0 (mp3float) -> aformat:default
  volume:default -> Stream #0:0 (libmp3lame)
Output #0, mp3, to 'C:\Users\fullm\Downloads\dubverse-saas\tmp\uploads\50ece4d4-7743-475c-b4e7-9cc90be49d37\dubbed_audio.mp3':
  Metadata:
    major_brand     : mp42
    minor_version   : 0
    compatible_brands: isommp42
    TSSE            : Lavf60.16.100
  Stream #0:0: Audio: mp3, 44100 Hz, stereo, fltp, 192 kb/s
    Metadata:
      encoder         : Lavc60.31.102 libmp3lame
size=       0kB time=N/A bitrate=N/A speed=N/A    
[2026-03-02T18:43:42.741Z] FFmpeg Err: size=     256kB time=00:00:15.36 bitrate= 136.5kbits/s speed=30.1x    
[2026-03-02T18:43:43.300Z] FFmpeg Err: size=     512kB time=00:00:31.40 bitrate= 133.6kbits/s speed=31.1x    [out#0/mp3 @ 0000022302c48400] video:0kB audio:781kB subtitle:0kB other streams:0kB global headers:0kB muxing overhead: 0.095503%
size=     782kB time=00:00:33.28 bitrate= 192.5kbits/s speed=30.8x    

[2026-03-02T18:43:43.316Z] Starting final video/audio muxing...
[2026-03-02T18:43:43.322Z] Running FFmpeg: C:\Users\fullm\Downloads\dubverse-saas\node_modules\ffmpeg-static\ffmpeg.exe -i C:\Users\fullm\Downloads\dubverse-saas\tmp\uploads\50ece4d4-7743-475c-b4e7-9cc90be49d37\video.mp4 -i C:\Users\fullm\Downloads\dubverse-saas\tmp\uploads\50ece4d4-7743-475c-b4e7-9cc90be49d37\dubbed_audio.mp3 -map 0:v:0 -map 1:a:0 -c:v copy -c:a aac -b:a 192k -shortest -y C:\Users\fullm\Downloads\dubverse-saas\tmp\uploads\50ece4d4-7743-475c-b4e7-9cc90be49d37\final_dubbed.mp4
[2026-03-02T18:43:43.449Z] FFmpeg Err: Input #0, mov,mp4,m4a,3gp,3g2,mj2, from 'C:\Users\fullm\Downloads\dubverse-saas\tmp\uploads\50ece4d4-7743-475c-b4e7-9cc90be49d37\video.mp4':
  Metadata:
    major_brand     : mp42
    minor_version   : 0
    compatible_brands: isommp42
    creation_time   : 2026-03-02T18:15:48.000000Z
    encoder         : Google
  Duration: 00:00:33.30, start: 0.000000, bitrate: 314 kb/s
  Stream #0:0[0x1](und): Video: h264 (Main) (avc1 / 0x31637661), yuv420p(tv, bt709, progressive), 360x640 [SAR 1:1 DAR 9:16], 264 kb/s, 25 fps, 25 tbr, 12800 tbn (default)
    Metadata:
      creation_time   : 2026-03-02T18:15:48.000000Z
      handler_name    : ISO Media file produced by Google Inc. Created on: 03/02/2026.
      vendor_id       : [0][0][0][0]
  Stream #0:1[0x2](eng): Audio: aac (HE-AAC) (mp4a / 0x6134706D), 44100 Hz, stereo, fltp, 48 kb/s (default)
    Metadata:
      creation_time   : 2026-03-02T18:15:48.000000Z
      handler_name    : ISO Media file produced by Google Inc. Created on: 03/02/2026.
      vendor_id       : [0][0][0][0]
Input #1, mp3, from 'C:\Users\fullm\Downloads\dubverse-saas\tmp\uploads\50ece4d4-7743-475c-b4e7-9cc90be49d37\dubbed_audio.mp3':
  Metadata:
    major_brand     : mp42
    minor_version   : 0
    compatible_brands: isommp42
    encoder         : Lavf60.16.100
  Duration: 00:00:33.33, start: 0.025057, bitrate: 192 kb/s
  Stream #1:0: Audio: mp3, 44100 Hz, stereo, fltp, 192 kb/s
    Metadata:
      encoder         : Lavc60.31
Stream mapping:
  Stream #0:0 -> #0:0 (copy)
  Stream #1:0 -> #0:1 (mp3 (mp3float) -> aac (native))
Output #0, mp4, to 'C:\Users\fullm\Downloads\dubverse-saas\tmp\uploads\50ece4d4-7743-475c-b4e7-9cc90be49d37\final_dubbed.mp4':
  Metadata:
    major_brand     : mp42
    minor_version   : 0
    compatible_brands: isommp42
    encoder         : Lavf60.16.100
  Stream #0:0(und): Video: h264 (Main) (avc1 / 0x31637661), yuv420p(tv, bt709, progressive), 360x640 [SAR 1:1 DAR 9:16], q=2-31, 264 kb/s, 25 fps, 25 tbr, 12800 tbn (default)
    Metadata:
      creation_time   : 2026-03-02T18:15:48.000000Z
      handler_name    : ISO Media file produced by Google Inc. Created on: 03/02/2026.
      vendor_id       : [0][0][0][0]
  Stream #0:1: Audio: aac (LC) (mp4a / 0x6134706D), 44100 Hz, stereo, fltp, 192 kb/s
    Metadata:
      encoder         : Lavc60.31.102 aac
size=       0kB time=N/A bitrate=N/A speed=N/A    
[2026-03-02T18:43:43.968Z] FFmpeg Err: size=     256kB time=00:00:07.04 bitrate= 297.9kbits/s speed=13.9x    
[2026-03-02T18:43:44.629Z] FFmpeg Err: size=     512kB time=00:00:15.68 bitrate= 267.5kbits/s speed=15.4x    
[2026-03-02T18:43:45.064Z] FFmpeg Err: size=    1024kB time=00:00:22.76 bitrate= 368.6kbits/s speed=  15x    
[2026-03-02T18:43:45.503Z] FFmpeg Err: size=    1536kB time=00:00:31.12 bitrate= 404.3kbits/s speed=15.4x    
[2026-03-02T18:43:45.912Z] FFmpeg Err: [out#0/mp4 @ 0000021868f61f00] video:1071kB audio:736kB subtitle:0kB other streams:0kB global headers:0kB muxing overhead: 1.358489%
size=    1832kB time=00:00:33.25 bitrate= 451.3kbits/s speed=14.9x    
[aac @ 0000021868f57cc0] Qavg: 8162.873

[2026-03-02T18:43:45.936Z] Pipeline finished successfully!
